<mxfile host="app.diagrams.net" modified="2023-06-08T14:34:39.827Z" agent="Mozilla/5.0 (Windows NT 10.0; Win64; x64; rv:109.0) Gecko/20100101 Firefox/114.0" etag="tmwP45gYV4tjYxbHBNmn" version="21.3.7" type="github">
  <diagram name="Seite-1" id="UO1F_VLTW8D_tPe4iTJi">
    <mxGraphModel dx="1434" dy="754" grid="1" gridSize="10" guides="1" tooltips="1" connect="1" arrows="1" fold="1" page="1" pageScale="1" pageWidth="827" pageHeight="1169" math="0" shadow="0">
      <root>
        <mxCell id="0" />
        <mxCell id="1" parent="0" />
        <mxCell id="E1WonGv3QrciGYkZ3yi6-70" value="" style="ellipse;shape=cloud;whiteSpace=wrap;html=1;align=center;verticalAlign=middle;fontColor=#c0c0c0;strokeColor=#8f8f8f;strokeWidth=3;" vertex="1" parent="1">
          <mxGeometry x="630" y="166" width="180" height="155" as="geometry" />
        </mxCell>
        <mxCell id="E1WonGv3QrciGYkZ3yi6-1" value="&lt;h1&gt;Trading Performance Query&lt;br&gt;&lt;/h1&gt;&lt;p&gt;Ren Liu | June 8, 2023&lt;br&gt;&lt;/p&gt;" style="text;html=1;strokeColor=none;fillColor=none;spacing=5;spacingTop=-20;whiteSpace=wrap;overflow=hidden;rounded=0;align=center;" vertex="1" parent="1">
          <mxGeometry x="180" y="50" width="420" height="70" as="geometry" />
        </mxCell>
        <mxCell id="E1WonGv3QrciGYkZ3yi6-2" value="Stop" style="rounded=1;whiteSpace=wrap;html=1;fillColor=#dae8fc;strokeColor=#6c8ebf;" vertex="1" parent="1">
          <mxGeometry x="350" y="930" width="100" height="40" as="geometry" />
        </mxCell>
        <mxCell id="E1WonGv3QrciGYkZ3yi6-17" style="edgeStyle=orthogonalEdgeStyle;rounded=0;orthogonalLoop=1;jettySize=auto;html=1;exitX=0.5;exitY=1;exitDx=0;exitDy=0;entryX=0.5;entryY=0;entryDx=0;entryDy=0;" edge="1" parent="1" source="E1WonGv3QrciGYkZ3yi6-3" target="E1WonGv3QrciGYkZ3yi6-4">
          <mxGeometry relative="1" as="geometry" />
        </mxCell>
        <mxCell id="E1WonGv3QrciGYkZ3yi6-3" value="Start" style="rounded=1;whiteSpace=wrap;html=1;fillColor=#dae8fc;strokeColor=#6c8ebf;" vertex="1" parent="1">
          <mxGeometry x="320" y="140" width="110" height="30" as="geometry" />
        </mxCell>
        <mxCell id="E1WonGv3QrciGYkZ3yi6-19" style="edgeStyle=orthogonalEdgeStyle;rounded=0;orthogonalLoop=1;jettySize=auto;html=1;exitX=0;exitY=0.5;exitDx=0;exitDy=0;entryX=0.5;entryY=0;entryDx=0;entryDy=0;" edge="1" parent="1" source="E1WonGv3QrciGYkZ3yi6-4" target="E1WonGv3QrciGYkZ3yi6-6">
          <mxGeometry relative="1" as="geometry" />
        </mxCell>
        <mxCell id="E1WonGv3QrciGYkZ3yi6-20" style="edgeStyle=orthogonalEdgeStyle;rounded=0;orthogonalLoop=1;jettySize=auto;html=1;exitX=1;exitY=0.5;exitDx=0;exitDy=0;entryX=0.5;entryY=0;entryDx=0;entryDy=0;" edge="1" parent="1" source="E1WonGv3QrciGYkZ3yi6-4" target="E1WonGv3QrciGYkZ3yi6-5">
          <mxGeometry relative="1" as="geometry" />
        </mxCell>
        <mxCell id="E1WonGv3QrciGYkZ3yi6-4" value="Entry or Query?" style="rhombus;whiteSpace=wrap;html=1;fillColor=#dae8fc;strokeColor=#6c8ebf;" vertex="1" parent="1">
          <mxGeometry x="310" y="190" width="130" height="50" as="geometry" />
        </mxCell>
        <mxCell id="E1WonGv3QrciGYkZ3yi6-41" value="" style="edgeStyle=orthogonalEdgeStyle;rounded=0;orthogonalLoop=1;jettySize=auto;html=1;strokeColor=#969696;" edge="1" parent="1" source="E1WonGv3QrciGYkZ3yi6-5" target="E1WonGv3QrciGYkZ3yi6-40">
          <mxGeometry relative="1" as="geometry" />
        </mxCell>
        <mxCell id="E1WonGv3QrciGYkZ3yi6-43" value="" style="edgeStyle=orthogonalEdgeStyle;rounded=0;orthogonalLoop=1;jettySize=auto;html=1;" edge="1" parent="1" source="E1WonGv3QrciGYkZ3yi6-5" target="E1WonGv3QrciGYkZ3yi6-42">
          <mxGeometry relative="1" as="geometry" />
        </mxCell>
        <mxCell id="E1WonGv3QrciGYkZ3yi6-5" value="Query" style="ellipse;whiteSpace=wrap;html=1;fillColor=#fff2cc;strokeColor=#d6b656;fontStyle=1" vertex="1" parent="1">
          <mxGeometry x="560" y="240" width="80" height="40" as="geometry" />
        </mxCell>
        <mxCell id="E1WonGv3QrciGYkZ3yi6-23" style="edgeStyle=orthogonalEdgeStyle;rounded=0;orthogonalLoop=1;jettySize=auto;html=1;exitX=0.5;exitY=1;exitDx=0;exitDy=0;entryX=0.5;entryY=0;entryDx=0;entryDy=0;" edge="1" parent="1" source="E1WonGv3QrciGYkZ3yi6-6" target="E1WonGv3QrciGYkZ3yi6-7">
          <mxGeometry relative="1" as="geometry" />
        </mxCell>
        <mxCell id="E1WonGv3QrciGYkZ3yi6-6" value="Manual Input" style="ellipse;whiteSpace=wrap;html=1;fontStyle=1;fillColor=#d5e8d4;strokeColor=#82b366;" vertex="1" parent="1">
          <mxGeometry x="110" y="240" width="80" height="40" as="geometry" />
        </mxCell>
        <mxCell id="E1WonGv3QrciGYkZ3yi6-7" value="&lt;div&gt;Stock Name&lt;/div&gt;&lt;div&gt;Stock ID&lt;/div&gt;&lt;div&gt;Price per share&lt;/div&gt;&lt;div&gt;Amount&lt;/div&gt;&lt;div&gt;Date of Transaction&lt;br&gt;&lt;/div&gt;" style="shape=document;whiteSpace=wrap;html=1;boundedLbl=1;size=0.2;fillColor=#d5e8d4;strokeColor=#82b366;" vertex="1" parent="1">
          <mxGeometry x="60" y="310" width="190" height="100" as="geometry" />
        </mxCell>
        <mxCell id="E1WonGv3QrciGYkZ3yi6-25" style="edgeStyle=orthogonalEdgeStyle;rounded=0;orthogonalLoop=1;jettySize=auto;html=1;exitX=0.5;exitY=1;exitDx=0;exitDy=0;entryX=0;entryY=0.5;entryDx=0;entryDy=0;" edge="1" parent="1" target="E1WonGv3QrciGYkZ3yi6-9">
          <mxGeometry relative="1" as="geometry">
            <mxPoint x="162.5" y="500" as="sourcePoint" />
            <mxPoint x="40" y="870" as="targetPoint" />
            <Array as="points">
              <mxPoint x="158" y="500" />
              <mxPoint x="158" y="530" />
              <mxPoint x="48" y="530" />
              <mxPoint x="48" y="870" />
            </Array>
          </mxGeometry>
        </mxCell>
        <mxCell id="E1WonGv3QrciGYkZ3yi6-26" style="edgeStyle=orthogonalEdgeStyle;rounded=0;orthogonalLoop=1;jettySize=auto;html=1;exitX=0.5;exitY=1;exitDx=0;exitDy=0;" edge="1" parent="1">
          <mxGeometry relative="1" as="geometry">
            <mxPoint x="155" y="528" as="sourcePoint" />
            <mxPoint x="272.5" y="578" as="targetPoint" />
          </mxGeometry>
        </mxCell>
        <mxCell id="E1WonGv3QrciGYkZ3yi6-8" value="Buy or Sell?" style="rhombus;whiteSpace=wrap;html=1;fillColor=#d5e8d4;strokeColor=#82b366;" vertex="1" parent="1">
          <mxGeometry x="90" y="450" width="130" height="50" as="geometry" />
        </mxCell>
        <mxCell id="E1WonGv3QrciGYkZ3yi6-33" style="edgeStyle=orthogonalEdgeStyle;rounded=0;orthogonalLoop=1;jettySize=auto;html=1;exitX=0.5;exitY=1;exitDx=0;exitDy=0;entryX=0;entryY=0.5;entryDx=0;entryDy=0;" edge="1" parent="1" source="E1WonGv3QrciGYkZ3yi6-9" target="E1WonGv3QrciGYkZ3yi6-2">
          <mxGeometry relative="1" as="geometry">
            <mxPoint x="310" y="850" as="targetPoint" />
            <Array as="points">
              <mxPoint x="115" y="950" />
            </Array>
          </mxGeometry>
        </mxCell>
        <mxCell id="E1WonGv3QrciGYkZ3yi6-9" value="&lt;div&gt;saved in &lt;br&gt;&lt;/div&gt;&lt;div&gt;buy.csv&lt;/div&gt;" style="shape=dataStorage;whiteSpace=wrap;html=1;fixedSize=1;fillColor=#d5e8d4;strokeColor=#82b366;" vertex="1" parent="1">
          <mxGeometry x="90" y="850" width="90" height="40" as="geometry" />
        </mxCell>
        <mxCell id="E1WonGv3QrciGYkZ3yi6-34" style="edgeStyle=orthogonalEdgeStyle;rounded=0;orthogonalLoop=1;jettySize=auto;html=1;exitX=0.789;exitY=0.45;exitDx=0;exitDy=0;exitPerimeter=0;entryX=0.5;entryY=0;entryDx=0;entryDy=0;" edge="1" parent="1" source="E1WonGv3QrciGYkZ3yi6-10" target="E1WonGv3QrciGYkZ3yi6-2">
          <mxGeometry relative="1" as="geometry">
            <mxPoint x="380" y="820" as="targetPoint" />
            <Array as="points">
              <mxPoint x="400" y="808" />
            </Array>
          </mxGeometry>
        </mxCell>
        <mxCell id="E1WonGv3QrciGYkZ3yi6-10" value="&lt;div&gt;saved in &lt;br&gt;&lt;/div&gt;&lt;div&gt;sell.csv&lt;/div&gt;" style="shape=dataStorage;whiteSpace=wrap;html=1;fixedSize=1;fillColor=#d5e8d4;strokeColor=#82b366;" vertex="1" parent="1">
          <mxGeometry x="170" y="790" width="90" height="40" as="geometry" />
        </mxCell>
        <mxCell id="E1WonGv3QrciGYkZ3yi6-29" style="edgeStyle=orthogonalEdgeStyle;rounded=0;orthogonalLoop=1;jettySize=auto;html=1;exitX=0.5;exitY=1;exitDx=0;exitDy=0;entryX=0.5;entryY=0;entryDx=0;entryDy=0;" edge="1" parent="1" source="E1WonGv3QrciGYkZ3yi6-11" target="E1WonGv3QrciGYkZ3yi6-12">
          <mxGeometry relative="1" as="geometry" />
        </mxCell>
        <mxCell id="E1WonGv3QrciGYkZ3yi6-36" style="edgeStyle=orthogonalEdgeStyle;rounded=0;orthogonalLoop=1;jettySize=auto;html=1;exitX=0.5;exitY=1;exitDx=0;exitDy=0;entryX=0.5;entryY=0;entryDx=0;entryDy=0;" edge="1" parent="1">
          <mxGeometry relative="1" as="geometry">
            <mxPoint x="272.5" y="584" as="sourcePoint" />
            <mxPoint x="346.5" y="659" as="targetPoint" />
            <Array as="points">
              <mxPoint x="273" y="620" />
              <mxPoint x="347" y="620" />
            </Array>
          </mxGeometry>
        </mxCell>
        <mxCell id="E1WonGv3QrciGYkZ3yi6-11" value="&lt;div&gt;check:&lt;/div&gt;&lt;div&gt;Bought enough?&lt;br&gt;&lt;/div&gt;" style="rounded=0;whiteSpace=wrap;html=1;fillColor=#d5e8d4;strokeColor=#82b366;" vertex="1" parent="1">
          <mxGeometry x="225" y="550" width="95" height="35" as="geometry" />
        </mxCell>
        <mxCell id="E1WonGv3QrciGYkZ3yi6-35" style="edgeStyle=orthogonalEdgeStyle;rounded=0;orthogonalLoop=1;jettySize=auto;html=1;exitX=0.5;exitY=1;exitDx=0;exitDy=0;entryX=0.5;entryY=0;entryDx=0;entryDy=0;" edge="1" parent="1" source="E1WonGv3QrciGYkZ3yi6-12" target="E1WonGv3QrciGYkZ3yi6-10">
          <mxGeometry relative="1" as="geometry" />
        </mxCell>
        <mxCell id="E1WonGv3QrciGYkZ3yi6-12" value="&lt;div&gt;if:&lt;/div&gt;&lt;div&gt;(Bought-Sold) &amp;gt;= to sell&lt;/div&gt;" style="rounded=0;whiteSpace=wrap;html=1;fillColor=#d5e8d4;strokeColor=#82b366;" vertex="1" parent="1">
          <mxGeometry x="90" y="655" width="150" height="35" as="geometry" />
        </mxCell>
        <mxCell id="E1WonGv3QrciGYkZ3yi6-37" style="edgeStyle=orthogonalEdgeStyle;rounded=0;orthogonalLoop=1;jettySize=auto;html=1;exitX=0.5;exitY=1;exitDx=0;exitDy=0;entryX=0;entryY=0.5;entryDx=0;entryDy=0;entryPerimeter=0;" edge="1" parent="1" source="E1WonGv3QrciGYkZ3yi6-13" target="E1WonGv3QrciGYkZ3yi6-16">
          <mxGeometry relative="1" as="geometry" />
        </mxCell>
        <mxCell id="E1WonGv3QrciGYkZ3yi6-13" value="&lt;div&gt;else:&lt;/div&gt;&lt;div&gt;(Bought - Sold) &amp;lt; to sell&lt;br&gt;&lt;/div&gt;" style="rounded=0;whiteSpace=wrap;html=1;fillColor=#d5e8d4;strokeColor=#82b366;" vertex="1" parent="1">
          <mxGeometry x="257" y="660" width="179" height="32" as="geometry" />
        </mxCell>
        <mxCell id="E1WonGv3QrciGYkZ3yi6-65" style="edgeStyle=orthogonalEdgeStyle;rounded=0;orthogonalLoop=1;jettySize=auto;html=1;exitX=1;exitY=0.5;exitDx=0;exitDy=0;exitPerimeter=0;entryX=0;entryY=1;entryDx=0;entryDy=0;" edge="1" parent="1" source="E1WonGv3QrciGYkZ3yi6-16" target="E1WonGv3QrciGYkZ3yi6-4">
          <mxGeometry relative="1" as="geometry">
            <Array as="points">
              <mxPoint x="521" y="745" />
              <mxPoint x="521" y="590" />
              <mxPoint x="343" y="590" />
            </Array>
          </mxGeometry>
        </mxCell>
        <mxCell id="E1WonGv3QrciGYkZ3yi6-16" value="Warning: can &lt;b&gt;NOT&lt;/b&gt; be sold!" style="shape=tape;whiteSpace=wrap;html=1;size=0.2857142857142857;fillColor=#f8cecc;strokeColor=#b85450;" vertex="1" parent="1">
          <mxGeometry x="390" y="710" width="111" height="70" as="geometry" />
        </mxCell>
        <mxCell id="E1WonGv3QrciGYkZ3yi6-21" value="&lt;b&gt;Entry&lt;/b&gt;" style="text;html=1;strokeColor=none;fillColor=none;align=center;verticalAlign=middle;whiteSpace=wrap;rounded=0;" vertex="1" parent="1">
          <mxGeometry x="195" y="190" width="60" height="30" as="geometry" />
        </mxCell>
        <mxCell id="E1WonGv3QrciGYkZ3yi6-22" value="&lt;b&gt;Query&lt;/b&gt;" style="text;html=1;strokeColor=none;fillColor=none;align=center;verticalAlign=middle;whiteSpace=wrap;rounded=0;" vertex="1" parent="1">
          <mxGeometry x="490" y="190" width="60" height="30" as="geometry" />
        </mxCell>
        <mxCell id="E1WonGv3QrciGYkZ3yi6-30" value="Buy" style="text;html=1;strokeColor=none;fillColor=none;align=center;verticalAlign=middle;whiteSpace=wrap;rounded=0;fontStyle=1" vertex="1" parent="1">
          <mxGeometry x="40" y="510" width="60" height="24" as="geometry" />
        </mxCell>
        <mxCell id="E1WonGv3QrciGYkZ3yi6-31" value="Sell" style="text;html=1;strokeColor=none;fillColor=none;align=center;verticalAlign=middle;whiteSpace=wrap;rounded=0;fontStyle=1" vertex="1" parent="1">
          <mxGeometry x="195" y="506" width="60" height="30" as="geometry" />
        </mxCell>
        <mxCell id="E1WonGv3QrciGYkZ3yi6-32" value="" style="endArrow=classic;html=1;rounded=0;" edge="1" parent="1">
          <mxGeometry width="50" height="50" relative="1" as="geometry">
            <mxPoint x="155" y="400" as="sourcePoint" />
            <mxPoint x="154.5" y="452" as="targetPoint" />
          </mxGeometry>
        </mxCell>
        <mxCell id="E1WonGv3QrciGYkZ3yi6-47" value="" style="edgeStyle=orthogonalEdgeStyle;rounded=0;orthogonalLoop=1;jettySize=auto;html=1;" edge="1" parent="1" source="E1WonGv3QrciGYkZ3yi6-39" target="E1WonGv3QrciGYkZ3yi6-46">
          <mxGeometry relative="1" as="geometry" />
        </mxCell>
        <mxCell id="E1WonGv3QrciGYkZ3yi6-52" value="" style="edgeStyle=orthogonalEdgeStyle;rounded=0;orthogonalLoop=1;jettySize=auto;html=1;" edge="1" parent="1" source="E1WonGv3QrciGYkZ3yi6-39" target="E1WonGv3QrciGYkZ3yi6-51">
          <mxGeometry relative="1" as="geometry" />
        </mxCell>
        <mxCell id="E1WonGv3QrciGYkZ3yi6-39" value="input: Stock Name" style="shape=document;whiteSpace=wrap;html=1;boundedLbl=1;fillColor=#fff2cc;strokeColor=#d6b656;" vertex="1" parent="1">
          <mxGeometry x="620" y="350" width="130" height="40" as="geometry" />
        </mxCell>
        <mxCell id="E1WonGv3QrciGYkZ3yi6-40" value="Portfolio Query" style="ellipse;whiteSpace=wrap;html=1;fontStyle=1;fontColor=#c0c0c0;labelBackgroundColor=none;strokeColor=#7A7A7A;" vertex="1" parent="1">
          <mxGeometry x="710" y="240" width="80" height="40" as="geometry" />
        </mxCell>
        <mxCell id="E1WonGv3QrciGYkZ3yi6-45" style="edgeStyle=orthogonalEdgeStyle;rounded=0;orthogonalLoop=1;jettySize=auto;html=1;exitX=0.5;exitY=1;exitDx=0;exitDy=0;entryX=0;entryY=0.5;entryDx=0;entryDy=0;" edge="1" parent="1" source="E1WonGv3QrciGYkZ3yi6-42" target="E1WonGv3QrciGYkZ3yi6-39">
          <mxGeometry relative="1" as="geometry" />
        </mxCell>
        <mxCell id="E1WonGv3QrciGYkZ3yi6-42" value="&lt;div&gt;Single Stock&lt;/div&gt;&lt;div&gt;Query&lt;/div&gt;" style="ellipse;whiteSpace=wrap;html=1;fillColor=#fff2cc;strokeColor=#d6b656;" vertex="1" parent="1">
          <mxGeometry x="455" y="310" width="95" height="40" as="geometry" />
        </mxCell>
        <mxCell id="E1WonGv3QrciGYkZ3yi6-49" style="edgeStyle=orthogonalEdgeStyle;rounded=0;orthogonalLoop=1;jettySize=auto;html=1;exitX=0.5;exitY=1;exitDx=0;exitDy=0;entryX=0.541;entryY=0.071;entryDx=0;entryDy=0;entryPerimeter=0;" edge="1" parent="1" source="E1WonGv3QrciGYkZ3yi6-46" target="E1WonGv3QrciGYkZ3yi6-48">
          <mxGeometry relative="1" as="geometry">
            <Array as="points">
              <mxPoint x="570" y="480" />
            </Array>
          </mxGeometry>
        </mxCell>
        <mxCell id="E1WonGv3QrciGYkZ3yi6-46" value="&lt;div&gt;if:&lt;/div&gt;&lt;div&gt;Bought = 0&lt;br&gt;&lt;/div&gt;" style="whiteSpace=wrap;html=1;fillColor=#fff2cc;strokeColor=#d6b656;" vertex="1" parent="1">
          <mxGeometry x="540" y="450" width="100" height="30" as="geometry" />
        </mxCell>
        <mxCell id="E1WonGv3QrciGYkZ3yi6-64" style="edgeStyle=orthogonalEdgeStyle;rounded=0;orthogonalLoop=1;jettySize=auto;html=1;exitX=0;exitY=0.5;exitDx=0;exitDy=0;exitPerimeter=0;entryX=1;entryY=1;entryDx=0;entryDy=0;" edge="1" parent="1" source="E1WonGv3QrciGYkZ3yi6-48" target="E1WonGv3QrciGYkZ3yi6-4">
          <mxGeometry relative="1" as="geometry" />
        </mxCell>
        <mxCell id="E1WonGv3QrciGYkZ3yi6-48" value="Warning: did &lt;b&gt;NOT&lt;/b&gt; buy it!" style="shape=tape;whiteSpace=wrap;html=1;size=0.2857142857142857;fillColor=#f8cecc;strokeColor=#b85450;" vertex="1" parent="1">
          <mxGeometry x="509" y="515" width="111" height="70" as="geometry" />
        </mxCell>
        <mxCell id="E1WonGv3QrciGYkZ3yi6-54" value="" style="edgeStyle=orthogonalEdgeStyle;rounded=0;orthogonalLoop=1;jettySize=auto;html=1;" edge="1" parent="1" source="E1WonGv3QrciGYkZ3yi6-51" target="E1WonGv3QrciGYkZ3yi6-53">
          <mxGeometry relative="1" as="geometry" />
        </mxCell>
        <mxCell id="E1WonGv3QrciGYkZ3yi6-51" value="&lt;div&gt;else:&lt;/div&gt;&lt;div&gt;Bought !=0&lt;br&gt;&lt;/div&gt;" style="whiteSpace=wrap;html=1;fillColor=#fff2cc;strokeColor=#d6b656;" vertex="1" parent="1">
          <mxGeometry x="680" y="450" width="120" height="30" as="geometry" />
        </mxCell>
        <mxCell id="E1WonGv3QrciGYkZ3yi6-59" value="" style="edgeStyle=orthogonalEdgeStyle;rounded=0;orthogonalLoop=1;jettySize=auto;html=1;" edge="1" parent="1" source="E1WonGv3QrciGYkZ3yi6-53" target="E1WonGv3QrciGYkZ3yi6-58">
          <mxGeometry relative="1" as="geometry" />
        </mxCell>
        <mxCell id="E1WonGv3QrciGYkZ3yi6-73" style="edgeStyle=orthogonalEdgeStyle;rounded=0;orthogonalLoop=1;jettySize=auto;html=1;exitX=0;exitY=0.5;exitDx=0;exitDy=0;entryX=0.5;entryY=0;entryDx=0;entryDy=0;" edge="1" parent="1" source="E1WonGv3QrciGYkZ3yi6-53" target="E1WonGv3QrciGYkZ3yi6-56">
          <mxGeometry relative="1" as="geometry">
            <Array as="points">
              <mxPoint x="650" y="550" />
              <mxPoint x="650" y="600" />
              <mxPoint x="595" y="600" />
            </Array>
          </mxGeometry>
        </mxCell>
        <mxCell id="E1WonGv3QrciGYkZ3yi6-53" value="list historical transactions" style="whiteSpace=wrap;html=1;fillColor=#fff2cc;strokeColor=#d6b656;" vertex="1" parent="1">
          <mxGeometry x="685" y="530" width="110" height="40" as="geometry" />
        </mxCell>
        <mxCell id="E1WonGv3QrciGYkZ3yi6-61" value="" style="edgeStyle=orthogonalEdgeStyle;rounded=0;orthogonalLoop=1;jettySize=auto;html=1;" edge="1" parent="1" source="E1WonGv3QrciGYkZ3yi6-56" target="E1WonGv3QrciGYkZ3yi6-60">
          <mxGeometry relative="1" as="geometry" />
        </mxCell>
        <mxCell id="E1WonGv3QrciGYkZ3yi6-56" value="&lt;div&gt;if:&lt;/div&gt;&lt;div&gt;Bought = Sold&lt;br&gt;&lt;/div&gt;" style="whiteSpace=wrap;html=1;fillColor=#fff2cc;strokeColor=#d6b656;" vertex="1" parent="1">
          <mxGeometry x="540" y="640" width="110" height="40" as="geometry" />
        </mxCell>
        <mxCell id="E1WonGv3QrciGYkZ3yi6-58" value="&lt;div&gt;else:&lt;/div&gt;&lt;div&gt;Bought &amp;gt; Sold&lt;br&gt;&lt;/div&gt;" style="whiteSpace=wrap;html=1;fillColor=#fff2cc;strokeColor=#d6b656;" vertex="1" parent="1">
          <mxGeometry x="690" y="638" width="100" height="38" as="geometry" />
        </mxCell>
        <mxCell id="E1WonGv3QrciGYkZ3yi6-68" style="edgeStyle=orthogonalEdgeStyle;rounded=0;orthogonalLoop=1;jettySize=auto;html=1;exitX=0.5;exitY=1;exitDx=0;exitDy=0;entryX=1;entryY=0.5;entryDx=0;entryDy=0;" edge="1" parent="1" source="E1WonGv3QrciGYkZ3yi6-60" target="E1WonGv3QrciGYkZ3yi6-2">
          <mxGeometry relative="1" as="geometry">
            <Array as="points">
              <mxPoint x="595" y="950" />
            </Array>
          </mxGeometry>
        </mxCell>
        <mxCell id="E1WonGv3QrciGYkZ3yi6-60" value="calculate performance and print it" style="whiteSpace=wrap;html=1;fillColor=#fff2cc;strokeColor=#d6b656;" vertex="1" parent="1">
          <mxGeometry x="535" y="820" width="120" height="60" as="geometry" />
        </mxCell>
        <mxCell id="E1WonGv3QrciGYkZ3yi6-67" value="" style="edgeStyle=orthogonalEdgeStyle;rounded=0;orthogonalLoop=1;jettySize=auto;html=1;" edge="1" parent="1" source="E1WonGv3QrciGYkZ3yi6-62" target="E1WonGv3QrciGYkZ3yi6-66">
          <mxGeometry relative="1" as="geometry" />
        </mxCell>
        <mxCell id="E1WonGv3QrciGYkZ3yi6-62" value="&lt;div&gt;input: &lt;br&gt;&lt;/div&gt;&lt;div&gt;&lt;b&gt;current &lt;/b&gt;selling price&lt;br&gt;&lt;/div&gt;" style="shape=document;whiteSpace=wrap;html=1;boundedLbl=1;fillColor=#fff2cc;strokeColor=#d6b656;" vertex="1" parent="1">
          <mxGeometry x="690" y="700" width="105" height="58" as="geometry" />
        </mxCell>
        <mxCell id="E1WonGv3QrciGYkZ3yi6-69" style="edgeStyle=orthogonalEdgeStyle;rounded=0;orthogonalLoop=1;jettySize=auto;html=1;exitX=0.5;exitY=1;exitDx=0;exitDy=0;" edge="1" parent="1" source="E1WonGv3QrciGYkZ3yi6-66">
          <mxGeometry relative="1" as="geometry">
            <mxPoint x="450" y="950" as="targetPoint" />
            <Array as="points">
              <mxPoint x="743" y="950" />
            </Array>
          </mxGeometry>
        </mxCell>
        <mxCell id="E1WonGv3QrciGYkZ3yi6-66" value="calculate &lt;b&gt;current&lt;/b&gt; performance and print it" style="whiteSpace=wrap;html=1;fillColor=#fff2cc;strokeColor=#d6b656;" vertex="1" parent="1">
          <mxGeometry x="682.5" y="820" width="120" height="60" as="geometry" />
        </mxCell>
        <mxCell id="E1WonGv3QrciGYkZ3yi6-72" value="Will be developed in the future!" style="text;html=1;strokeColor=none;fillColor=none;align=center;verticalAlign=middle;whiteSpace=wrap;rounded=0;fontStyle=1;fontColor=#818181;" vertex="1" parent="1">
          <mxGeometry x="660" y="207" width="97" height="30" as="geometry" />
        </mxCell>
      </root>
    </mxGraphModel>
  </diagram>
</mxfile>
